<svg xmlns="http://www.w3.org/2000/svg" width="223.186" height="46.941" viewBox="0 0 223.186 46.941">
  <g id="logo_artis" transform="translate(-102.9 240.903)">
    <path id="Path_424" data-name="Path 424" d="M722.656-240.648l-.685.254-.274,1.9-.274,1.9-.8-.117c-.45-.078-1.957-.43-3.365-.8-2.739-.7-3.835-.822-4.129-.43a28.168,28.168,0,0,0-1.722,4.481c-.391,1.467-.372,1.878.2,2.426l.47.489h8.864l-.117.92c-.274,2.231-.548,10.253-.587,16.495-.02,7.474.2,9.685,1.174,11.681a5.8,5.8,0,0,0,5.263,2.994,4.928,4.928,0,0,0,4.422-2.485l.43-.7.352.665a7.755,7.755,0,0,0,5.753,3.913,11.386,11.386,0,0,0,6.066-.8,12.447,12.447,0,0,0,6.692-10.37c.235-3.815-1.291-6.516-4.05-7.24a8.553,8.553,0,0,0-4.266.1c-1,.294-1.213.411-1.213.763,0,.294.254.548.88.88a7.632,7.632,0,0,1,2.915,2.641,3.853,3.853,0,0,1,.039,2.915c-.685,1.663-3.209,3.287-5.3,3.424-2.27.157-3.15-.861-2.994-3.385.078-1.291.215-1.644,1.389-3.874a26.5,26.5,0,0,0,1.311-2.661c0-.254-1.683.391-2.681,1.017a20.037,20.037,0,0,0-4.422,4.97c-1.467,2.211-1.878,2.6-2.837,2.6-.509,0-.822-.2-1.507-.88a8.835,8.835,0,0,1-2.172-4.5c-.45-2.055-.411-8.159.059-14.675l.352-4.676.783-.137c.431-.078,1.409-.235,2.152-.352a9.752,9.752,0,0,0,3.972-1.331l.626-.47-.333-.607c-.978-1.663-2.974-2.759-5.576-3.033l-1.428-.157-.1-.9c-.1-.8-.254-1.037-1.272-2.015a8.012,8.012,0,0,0-1.272-1.076A6.1,6.1,0,0,0,722.656-240.648Z" transform="translate(-489.228 0)" fill="#0b0b0b"/>
    <path id="Path_425" data-name="Path 425" d="M164.926-238.863c0,.1-.117,1.878-.235,3.972-.274,4.461.1,3.952-3.561,4.892a10.593,10.593,0,0,0-2.7.939c-.313.333-.333.45-.039,1.781a15,15,0,0,1,.293,1.976,1.009,1.009,0,0,0,.509.92c.45.294.685.294,2.113.1,2.211-.333,2.563-.294,3.111.2.47.43.489.646,1.017,6.848.293,3.5.489,6.477.411,6.574-.372.626-6.2,2.955-10.253,4.129-2.348.665-8.061,1.976-8.648,1.976-.215,0,1.154-3.365,2.054-5.029a13.568,13.568,0,0,0,1.741-3.913c.92-3.5-.157-5.733-2.759-5.733-1.428,0-2.054.313-3.874,1.957-1.624,1.467-2.759,2.133-3.639,2.152a7.907,7.907,0,0,1-2.544-1.448c-3.639-2.563-4.95-3.111-6.32-2.661-1.272.411-2.7,2.661-3.542,5.537-.333,1.135-.333,1.135-1.037,1.076-.685-.059-.7-.078-1.057-1.428-.2-.763-.783-3.483-1.311-6.066-2.289-11.153-2.446-11.623-4.285-13.481a4.5,4.5,0,0,0-3.483-1.722c-3.639.039-7.729,5.537-10.918,14.734-3.092,8.844-4.011,18.96-2.015,21.934a3,3,0,0,0,3.581,1.331c.489-.176.685-.509,1.526-2.6a64.955,64.955,0,0,1,3.659-7.787l.43-.626,2.661.157c1.467.078,3.639.235,4.853.352l2.191.235,2.759,3.678c2.563,3.424,2.739,3.718,2.465,4.031-.509.548-.372.8.43.8,1.174,0,1.252-.137,1.037-1.585-.117-.685-.509-2.348-.9-3.7-.372-1.35-.685-2.583-.685-2.739,0-.235.313-.293,1.526-.313a5.67,5.67,0,0,0,1.918-.235,3.6,3.6,0,0,0,.959-1.154c.587-1.037,1.82-2.407,2.152-2.407a2.24,2.24,0,0,1,.744.685c1.37,1.722,3.8,2.074,6.574.939.509-.215.1,2.935-.763,5.929-1.174,4.05-1.076,5.2.548,5.889,1.428.587,2.5.548,4.735-.235,6.281-2.191,14.068-5.811,17.61-8.159,1.017-.665,1.957-1.291,2.074-1.37.137-.1.313.978.548,3.444.176,1.976.47,4.148.626,4.813a8.946,8.946,0,0,0,2.524,4.481c1.154,1.037,3.522,2.368,4.266,2.368a11.129,11.129,0,0,0,4.129-2.172c2.544-2.25,4.618-6.574,5.655-11.818l.45-2.348.528.8a18.651,18.651,0,0,1,1.291,3.033c1.057,3.17,1.859,4.676,2.5,4.676.548,0,.235-9.353-.43-12.816-.587-3.092-1.741-4.989-3.013-4.989-2.054,0-4.97,3.346-8.531,9.783-.9,1.6-1.37,2.309-1.467,2.133a67.118,67.118,0,0,1-2.055-8.3c-1.233-5.87-1.761-8.2-2.231-9.666a4.136,4.136,0,0,1-.274-1.487c.117-.313,1.1-.685,1.8-.685a1.5,1.5,0,0,0,.7-.157,5.765,5.765,0,0,0,.215-2.055l.039-1.9H172.2c-2.7-.02-4.657-2.054-5.968-6.222a13.7,13.7,0,0,1-.509-2.015.346.346,0,0,0-.391-.372C165.121-239,164.945-238.941,164.926-238.863ZM119.316-214.4a30.377,30.377,0,0,1,1.135,3.131c-.02.02-.92.2-2,.352-1.057.176-2.524.43-3.248.567-1.291.235-1.507.2-1.174-.176.1-.117.665-1.389,1.272-2.837,1.076-2.563,2.054-4.109,2.563-4.109A12.743,12.743,0,0,1,119.316-214.4Z" transform="translate(0 -1.531)" fill="#0b0b0b"/>
    <path id="Path_426" data-name="Path 426" d="M899.1-219.254c-.587.509-1.37,1.174-1.742,1.467l-.646.548.411,2.974c.235,1.644.43,3.209.43,3.5,0,.489-.039.509-.626.333a5.677,5.677,0,0,0-1.252-.176c-.587,0-.665.078-1.135,1.272-.587,1.468-.665,2.544-.2,2.72a12.6,12.6,0,0,0,2.055.117c2.015,0,1.761-.352,2.23,3.131,1.526,11.114,3.346,17.766,5.009,18.295.743.235,1.272-.411,2.8-3.463,1.546-3.111,2.954-5.3,3.444-5.4.45-.078,1.644,1.976,3.189,5.4,1.683,3.776,2.172,4.481,3.639,5.479,3.15,2.094,7.651,1.82,10.116-.626a6.33,6.33,0,0,0,1.878-5.068c0-1.311.059-1.7.254-1.7a9.74,9.74,0,0,1,1.585,2.563q3.17,6.222,5.831,6.829c1.233.274,2.231-.137,3.542-1.448a7.25,7.25,0,0,0,2.035-3.385c.469-1.213,1.8-5.126,2.955-8.707,1.526-4.735,2.172-6.535,2.406-6.574.568-.117,3.307,1.487,4.892,2.818,3.7,3.15,6.163,7.514,5.616,9.92a3.622,3.622,0,0,1-1.233,2.074c-.215.157-1.017.822-1.781,1.487a35.522,35.522,0,0,1-4.755,3.4c-.411.215-.45.176-.45-.274,0-.43-.078-.509-.431-.45-.88.117-1.193,2.5-.352,2.5a34.812,34.812,0,0,0,4.99-.8c3.7-.92,6.907-3.189,8.022-5.694,1.741-3.835-.313-9.666-6.339-18.1-5.263-7.318-5.635-7.787-6.4-8.218-1.428-.822-2.935-.411-4.285,1.154-1.644,1.9-2.9,5.048-6.555,16.3-.567,1.722-1.233,3.522-1.468,3.992l-.43.861-1.917-3.6c-5.146-9.666-7.083-12.992-7.748-13.188a3.538,3.538,0,0,0-2.407.176c-1.037.665-1.115,2.407-.411,7.846.567,4.3.607,5.713.2,7.064a2.631,2.631,0,0,1-2.6,2.191,7.752,7.752,0,0,1-1.957-.137c-1.017-.274-1.585-1-3.483-4.5-2.818-5.185-4.4-7.064-5.968-7.064-1.174,0-1.918.822-3.385,3.679-1.683,3.287-1.6,3.189-1.878,2.485a48.958,48.958,0,0,1-1.467-7.2c-.274-1.741-.528-3.4-.568-3.679-.1-.509-.059-.528,1.37-.744,1.7-.254,2.818-.665,2.818-1.057s-.978-1.252-1.8-1.585a5.166,5.166,0,0,0-1.7-.313c-.528,0-1.037-.078-1.1-.2-.059-.1-.333-1.565-.587-3.248a41.632,41.632,0,0,0-1.428-6.653C900.236-220.115,899.923-219.959,899.1-219.254Z" transform="translate(-636.342 -16.815)" fill="#0b0b0b"/>
    <path id="Path_427" data-name="Path 427" d="M499.641-194.619A4.528,4.528,0,0,0,497-190.354a4.556,4.556,0,0,0,6.985,3.855,4.641,4.641,0,0,0-.391-8.081A5.217,5.217,0,0,0,499.641-194.619Z" transform="translate(-316.988 -36.93)" fill="#0b0b0b"/>
    <path id="Path_428" data-name="Path 428" d="M554.355-163.55c-3.737.685-5.655,2.6-5.655,5.694,0,3.228,2.465,6.007,7.729,8.688,2.876,1.467,3.5,1.957,4.05,3.091.8,1.663.43,3.679-1.272,6.653l-.92,1.624-1.546.548c-1.174.411-1.526.626-1.448.841a1.85,1.85,0,0,1,.117.528c0,.117.294.391.665.587.646.352.724.352,2.818-.02,2-.372,2.231-.45,3.326-1.291,4.226-3.248,6.066-6.066,5.87-8.961-.2-2.759-2.25-5.224-7.768-9.372-4.442-3.326-4.716-3.581-4.716-4.5,0-1.565,1.742-2.622,4.657-2.876,2.368-.2,2.524-.333.92-.841A20.464,20.464,0,0,0,554.355-163.55Z" transform="translate(-358.573 -62.11)" fill="#0b0b0b"/>
  </g>
</svg>
