<svg xmlns="http://www.w3.org/2000/svg" width="285.135" height="80" viewBox="0 0 285.135 80">
  <g id="Group_640" data-name="Group 640" transform="translate(-179.143 -229.795)">
    <path id="Path_20827" data-name="Path 20827" d="M200.3,321.469A13.706,13.706,0,0,0,213.97,307.8V295.288c0-3.436-2.036-7.336-4.31-8.672,1.805-1.461,3.174-5.062,3.174-7.83v-5.564a13.707,13.707,0,0,0-13.666-13.667H179.143v61.914Zm214.406-20.813h-5.229V285.151a5.911,5.911,0,0,1,2.614-5.068,5.911,5.911,0,0,1,2.614,5.068v15.506Zm-5.229,10.407h5.229v10.407h13.5V283.342c0-19.093-32.234-19.093-32.234,0v38.129h13.5V311.063ZM329.859,278.7h-13.5v42.77H337.7V311.065h-7.839V278.7Zm-98.568-9.4a13.707,13.707,0,0,0-13.668,13.667v38.506h13.5V286.2a5.911,5.911,0,0,1,2.614-5.068l6.682.034V270.758c-3.288-.717-5.759-1.459-9.132-1.459Zm83,9.464-13.975-.5-7.281,9.874V277.829l-13.5-1.146v44.787h13.5V309.114a5.91,5.91,0,0,1,2.614-5.068,5.909,5.909,0,0,1,2.614,5.068v12.356h13.5V307.306a13.72,13.72,0,0,0-9.042-12.857L314.3,278.762Zm-39.344,29.043V276.159l-13.5-1.759V306a5.911,5.911,0,0,1-2.614,5.069A5.91,5.91,0,0,1,256.22,306V273.591l-13.5-2.434v36.649c.033,18.94,32.263,18.935,32.234,0Zm65.474-29.293v42.958h13.5v-43.7l-13.5.738Zm18.519,10.941v32.017h13.5V291.262a5.909,5.909,0,0,1,2.614-5.068,5.909,5.909,0,0,1,2.614,5.068v30.208h13.5V289.453c0-18.979-32.231-18.992-32.234,0Zm97.48-3.724a13.711,13.711,0,0,1,7.854,12.361V307.8a13.707,13.707,0,0,1-13.667,13.667h-4.9A13.707,13.707,0,0,1,432.042,307.8v-9.2l13.5,3.859v3.534a5.911,5.911,0,0,0,2.614,5.069,5.911,5.911,0,0,0,2.614-5.069v-6.1a6.064,6.064,0,0,0-.97-3.44c-1.973-2.99-6.809-2.851-9.908-4.319a13.71,13.71,0,0,1-7.854-12.361v-6.3a13.707,13.707,0,0,1,13.667-13.667h3.766a13.707,13.707,0,0,1,13.666,13.667v4.4l-13.5-2.594c0-2.551-.776-4.248-2.052-5.069-1.276.821-2.041,2.518-2.041,5.069v2.683a6.059,6.059,0,0,0,.97,3.44c1.973,2.99,6.809,2.851,9.908,4.319Zm-257.091-8.751a6.094,6.094,0,0,1-.97,3.44c-1.054,1.6-4.123,3.546-5.716,4.469V269.963h2.593c2.857,0,4.092,2.355,4.092,5.069v1.946Zm-.231,16.165a6.093,6.093,0,0,1,1.367,3.954v8.9c0,4.058-4.455,5.069-7.821,5.069v-9.695a6.068,6.068,0,0,1,.97-3.31A24.792,24.792,0,0,1,199.1,293.143Z" transform="translate(0 -12.214)" fill="#04185c" fill-rule="evenodd"/>
    <path id="Path_20828" data-name="Path 20828" d="M326.847,229.795h7.724c0,1.885-1.978,3.14-3.863,3.746-1.885-.606-3.862-1.861-3.862-3.746Zm36.424,20.328h-2.92v-6.6a3.3,3.3,0,0,1,1.46-2.831,3.3,3.3,0,0,1,1.46,2.831v6.6Zm-2.92,4.98h2.92v6.447l7.541.215V242.514c0-10.6-18-10.606-18,0v18.528l7.541.392V255.1ZM322.2,242.465c0,4.164,3.018,5.9,6.46,6.613,1.866.39,3.941,1.066,3.941,2.551a1.371,1.371,0,1,1-2.724,0,1.585,1.585,0,0,1,.008-.172l-.006-.024H322.2c0,10.717,18,10.719,18,0a6.593,6.593,0,0,0-4.162-6.167c-1.9-.817-6.444-.835-6.273-3.317.123-1.787,2.408-1.719,2.381.516h7.4c0-10.656-17.346-10.66-17.347,0Zm27.877-7.279h-7.542v25.147l7.542.561V235.186ZM436.571,251.3V235.188l-7.541.035v15.063a1.792,1.792,0,1,1-2.921,0v-15.1h-7.541V251.3c0,5.333,4.556,7.986,9.085,7.952l0,0,3.1,0c.973,0,2.184-.06,2.948.929a3.313,3.313,0,0,0,2.876,2v-4.453c0-.792-.635-1.391-1.524-1.763a7.44,7.44,0,0,0,1.524-4.669Zm-44.926,3.089v-19.2l-7.541,0v18.188a1.792,1.792,0,1,1-2.92,0V235.188h-7.541v19.2c0,10.6,18,10.608,18,0Zm10.479-19.2h-7.538v26.338l12-.493V256.32l-4.461.226V235.188Zm13.6,0h-7.541v25.73l7.541-.556Z" transform="translate(-58.711 0)" fill="#ed1846" fill-rule="evenodd"/>
  </g>
</svg>
