<svg xmlns="http://www.w3.org/2000/svg" xmlns:xlink="http://www.w3.org/1999/xlink" width="121.621" height="69.47" viewBox="0 0 121.621 69.47">
  <defs>
    <clipPath id="clip-path">
      <rect id="Rectangle_1" data-name="Rectangle 1" width="121.621" height="69.47" transform="translate(7 0.368)" fill="none"/>
    </clipPath>
  </defs>
  <g id="Group_1" data-name="Group 1" transform="translate(-7 -0.368)" clip-path="url(#clip-path)">
    <path id="Path_1" data-name="Path 1" d="M80.514,573.622a2.016,2.016,0,0,1,.78.445,2.153,2.153,0,0,1,.5.8l-.2.213a5.642,5.642,0,0,0-1.832,3.166,12.747,12.747,0,0,0,.757,2.789q.374,1.061.572,1.7.463,1.49.612,2.245a7.73,7.73,0,0,1,.146,1.43,4.9,4.9,0,0,1-.625,2.544,4.142,4.142,0,0,1-1.873,1.642,1.473,1.473,0,0,1-.716-.3,2.751,2.751,0,0,1-.558-.948,6.809,6.809,0,0,0,1.116-1.69,4.179,4.179,0,0,0,.372-1.71,5.732,5.732,0,0,0-.186-1.314q-.183-.755-.758-2.377a.559.559,0,0,1-.027-.068,14.961,14.961,0,0,1-.984-3.855,4.841,4.841,0,0,1,.753-2.608,6.51,6.51,0,0,1,2.158-2.095m-3.972,14.3c.009.082.018.153.022.226s0,.14,0,.213A1.542,1.542,0,0,1,76,589.607a2.119,2.119,0,0,1-1.43.481,3.4,3.4,0,0,1-3.1-1.768,10.239,10.239,0,0,1-1.057-5.178,15.157,15.157,0,0,1,1.148-6.277q1.149-2.53,2.748-2.53a1.957,1.957,0,0,1,1.724,1.238,6.842,6.842,0,0,1,.667,3.25,7.413,7.413,0,0,1-.086,1.156,7.73,7.73,0,0,1-.26,1.106c-.231.04-.426.077-.589.1a3.438,3.438,0,0,1-.472.031c-.046,0-.335-.013-.866-.046s-1.048-.049-1.56-.058c-.049.581-.086,1.015-.1,1.3s-.018.554-.018.8a7.616,7.616,0,0,0,.631,3.755,2.665,2.665,0,0,0,2.426.984h.268c.208-.018.368-.027.463-.027m-1.728-8.457c.018-.2.036-.412.049-.625s.018-.331.018-.359a3.753,3.753,0,0,0-.2-1.43.669.669,0,0,0-.65-.439c-.244,0-.449.226-.607.685a11.212,11.212,0,0,0-.412,2.331Zm-5.981-10.086q-.048,1.938-.077,3.7t-.027,3.22q0,5.07.046,8.1t.177,5.351c-.372.073-.667.118-.884.146a4.546,4.546,0,0,1-.549.04,2.209,2.209,0,0,1-.454-.046,4.237,4.237,0,0,1-.558-.168q.027-2.258.04-4.29c.009-1.352.013-2.612.013-3.791q0-3.15-.059-6.186t-.182-5.981a5.054,5.054,0,0,1,.725-.244,2.473,2.473,0,0,1,.576-.073,3.456,3.456,0,0,1,.558.046,3.586,3.586,0,0,1,.663.182M64.9,587.933c.009.082.018.153.022.226s0,.14,0,.213a1.542,1.542,0,0,1-.567,1.234,2.12,2.12,0,0,1-1.43.481,3.4,3.4,0,0,1-3.1-1.768,10.237,10.237,0,0,1-1.057-5.178,15.161,15.161,0,0,1,1.147-6.277q1.149-2.53,2.748-2.53a1.958,1.958,0,0,1,1.723,1.238,6.839,6.839,0,0,1,.667,3.25,7.38,7.38,0,0,1-.086,1.156,7.681,7.681,0,0,1-.26,1.106c-.231.04-.426.077-.59.1a3.438,3.438,0,0,1-.472.031c-.046,0-.335-.013-.866-.046s-1.048-.049-1.56-.058c-.049.581-.086,1.015-.1,1.3s-.018.554-.018.8a7.616,7.616,0,0,0,.631,3.755,2.665,2.665,0,0,0,2.426.984h.268c.209-.018.368-.027.463-.027m-1.728-8.457c.018-.2.036-.412.049-.625s.018-.331.018-.359a3.753,3.753,0,0,0-.2-1.43.669.669,0,0,0-.65-.439c-.244,0-.449.226-.607.685a11.213,11.213,0,0,0-.412,2.331Zm-12.888-3.9a2.555,2.555,0,0,1,.816-.634,2.927,2.927,0,0,1,1.066-.281l.241.757c.363-.149.735-.312,1.116-.485s.771-.354,1.17-.549a2.3,2.3,0,0,1,.244-.04,2.844,2.844,0,0,1,.3-.013,1.518,1.518,0,0,1,1.447.844,6.1,6.1,0,0,1,.454,2.743v3.106q0,2.843.055,4.885c.036,1.356.091,2.539.173,3.538a2.674,2.674,0,0,1-.65.335,2.148,2.148,0,0,1-.671.1,2.248,2.248,0,0,1-.616-.086,3.912,3.912,0,0,1-.658-.26c.055-1.283.095-2.539.13-3.759s.046-2.417.046-3.587v-.572a21.972,21.972,0,0,0-.217-4.141c-.15-.508-.43-.762-.848-.762a1.382,1.382,0,0,0-.722.2,1.541,1.541,0,0,0-.54.554c.064,1.07.1,2.145.13,3.221s.04,2.172.04,3.288c0,.694,0,1.642-.013,2.853s-.013,2.068-.013,2.581a1.1,1.1,0,0,1-.463.363,2.018,2.018,0,0,1-.707.1,2.515,2.515,0,0,1-.65-.082,2.641,2.641,0,0,1-.64-.26q.15-2.368.213-4.635c.045-1.515.069-3.011.069-4.48q0-1.619-.073-2.73c-.049-.738-.13-1.442-.231-2.118m-7,1.8h-.077a.982.982,0,0,1-.744-.35,1.071,1.071,0,0,1-.322-.744.326.326,0,0,1,.04-.13,1.657,1.657,0,0,1,.146-.213c.508-.3,1.03-.594,1.569-.875s1.093-.554,1.651-.811a2.939,2.939,0,0,1,2.295,1.8,22.979,22.979,0,0,1,.64,7.033q0,1.837-.091,6.1c-.009.29-.013.508-.013.65a2.818,2.818,0,0,1-.494.172,1.626,1.626,0,0,1-.408.055,1.6,1.6,0,0,1-.449-.068,2.073,2.073,0,0,1-.445-.182l-.1-.625a6.532,6.532,0,0,1-1.125.417,3.739,3.739,0,0,1-.975.153,1.725,1.725,0,0,1-1.624-1.084,8.009,8.009,0,0,1-.53-3.355,6.586,6.586,0,0,1,.844-3.8,3.184,3.184,0,0,1,2.758-1.156h.426a8.487,8.487,0,0,0-.39-2.708c-.25-.707-.545-1.061-.889-1.061a.97.97,0,0,0-.313.069,2.218,2.218,0,0,0-.39.173Zm3.075,9.99c0-.816-.009-1.642-.022-2.47s-.033-1.682-.059-2.539a1.35,1.35,0,0,0-.146-.023h-.226a1.317,1.317,0,0,0-1.183.625,3.443,3.443,0,0,0-.4,1.846,5.081,5.081,0,0,0,.3,2.158,1.118,1.118,0,0,0,1.061.512,2.731,2.731,0,0,0,.467-.068c.086-.018.159-.027.213-.036m-10.141,2.444a2.291,2.291,0,0,1-.93-.168,1.806,1.806,0,0,1-.68-.512,8.051,8.051,0,0,1-.662-2.21,20.24,20.24,0,0,1-.213-3.215,27.284,27.284,0,0,1,.376-4.708,12.582,12.582,0,0,1,1.07-3.478,1.69,1.69,0,0,1,.793-.762,2.6,2.6,0,0,1,1.216-.3,3.4,3.4,0,0,1,.576.055,4.62,4.62,0,0,1,.65.159l-.055-4.73a2.359,2.359,0,0,1,.74-.534,2.115,2.115,0,0,1,.871-.168,1.691,1.691,0,0,1,.226.018c.095.014.29.055.585.113q-.122,3.721-.181,8.045t-.059,9.265v2.86l-.811.454h-.2a2.764,2.764,0,0,1-.627-.068,2.144,2.144,0,0,1-.571-.213c-.022-.1-.049-.226-.073-.363s-.04-.335-.059-.594a4.035,4.035,0,0,1-.871.622,5.368,5.368,0,0,1-1.106.43m-.082-2.608c.281.082.536.14.753.182a2.969,2.969,0,0,0,.549.058,2.373,2.373,0,0,0,.731-.186l.027-.013q.095-1.69.146-4.272t.069-6.716c-.2-.04-.363-.077-.5-.1a2.372,2.372,0,0,0-.359-.031c-.563,0-.966.59-1.225,1.768a29.054,29.054,0,0,0-.39,5.632c0,.662.013,1.3.045,1.9s.082,1.192.153,1.777m-4.081.191a1.987,1.987,0,0,1,.616.616,1.345,1.345,0,0,1,.2.712,2.98,2.98,0,0,1-.095.607.435.435,0,0,1-.009.069,6.714,6.714,0,0,1-1.324.417,6.433,6.433,0,0,1-1.3.13,9.875,9.875,0,0,1-1.619-.155,19.947,19.947,0,0,1-2.1-.472,3.676,3.676,0,0,1-.186-.631,2.872,2.872,0,0,1-.068-.616,1.983,1.983,0,0,1,.009-.26,1.2,1.2,0,0,1,.018-.159l3.469-11.033c-.13.018-.268.031-.39.04s-.281.013-.458.013a7.177,7.177,0,0,1-.93-.068c-.345-.04-.735-.113-1.17-.209-.073-.286-.122-.545-.159-.78a4.03,4.03,0,0,1-.055-.6.556.556,0,0,1,.095-.317.962.962,0,0,1,.29-.281,4.363,4.363,0,0,0,.9.208,8.774,8.774,0,0,0,1.112.058,10.342,10.342,0,0,0,1.229-.068,6.435,6.435,0,0,0,1.03-.2,1.481,1.481,0,0,1,.612.554,2.894,2.894,0,0,1,.317,1q-1.225,3.946-2.041,6.689t-1.415,4.925a3.809,3.809,0,0,0,.6.141,3.886,3.886,0,0,0,.6.045,6.3,6.3,0,0,0,1.011-.095,10.461,10.461,0,0,0,1.22-.277M19.666,577.376h-.077a.98.98,0,0,1-.744-.35,1.07,1.07,0,0,1-.322-.744.327.327,0,0,1,.04-.13,1.609,1.609,0,0,1,.146-.213c.508-.3,1.03-.594,1.569-.875s1.093-.554,1.651-.811a2.938,2.938,0,0,1,2.295,1.8,22.979,22.979,0,0,1,.64,7.034q0,1.837-.091,6.1c-.009.29-.013.508-.013.65a2.812,2.812,0,0,1-.494.172,1.626,1.626,0,0,1-.408.055,1.609,1.609,0,0,1-.449-.068,2.091,2.091,0,0,1-.445-.182l-.1-.625a6.527,6.527,0,0,1-1.125.417,3.747,3.747,0,0,1-.975.153,1.725,1.725,0,0,1-1.624-1.084,8.013,8.013,0,0,1-.53-3.356,6.588,6.588,0,0,1,.844-3.8,3.185,3.185,0,0,1,2.758-1.156h.426a8.5,8.5,0,0,0-.39-2.708c-.25-.707-.545-1.061-.889-1.061a.972.972,0,0,0-.312.069,2.208,2.208,0,0,0-.39.173Zm3.075,9.99c0-.816-.009-1.642-.023-2.47s-.031-1.682-.059-2.539a1.4,1.4,0,0,0-.146-.023h-.226a1.317,1.317,0,0,0-1.183.625,3.445,3.445,0,0,0-.4,1.846,5.082,5.082,0,0,0,.3,2.158,1.119,1.119,0,0,0,1.061.512,2.707,2.707,0,0,0,.467-.068c.086-.018.159-.027.213-.036m-10.575,2.176c.04-1.216.077-2.267.1-3.17s.031-1.71.031-2.435q0-2.408-.086-4.571c-.059-1.447-.15-2.834-.272-4.172a2.571,2.571,0,0,1,.712-.554,2.917,2.917,0,0,1,.92-.286,1.631,1.631,0,0,1,.612.853,8.556,8.556,0,0,1,.235,2.032q.91-.891,1.538-1.456a12.557,12.557,0,0,1,1.04-.857,1.5,1.5,0,0,1,.712.54,3.173,3.173,0,0,1,.43,1.121,12.813,12.813,0,0,0-1.846,1.338,15.6,15.6,0,0,0-1.741,1.76c-.027.844-.049,1.69-.064,2.553s-.018,1.728-.018,2.617c0,.558.009,1.229.027,2.018s.046,1.651.077,2.581l-.408.52c-.082,0-.2,0-.359-.014s-.277-.013-.345-.013a2.688,2.688,0,0,1-.78-.095,1.189,1.189,0,0,1-.52-.3M8.485,572.28a3.239,3.239,0,0,1,.1.554,5.95,5.95,0,0,1,.036.671v1.143a.854.854,0,0,1-.014.14,1.366,1.366,0,0,0,0,.272c.3-.009.65-.036,1.048-.086s.866-.118,1.4-.208a2.018,2.018,0,0,1,.567.722,2.492,2.492,0,0,1,.19.957,4.394,4.394,0,0,1-1.061.363,20.58,20.58,0,0,1-2.113.3q-.13,2.136-.2,4.09T8.381,584.9a10.463,10.463,0,0,0,.2,2.73.746.746,0,0,0,.757.49,2.341,2.341,0,0,0,.554-.058,2.079,2.079,0,0,0,.472-.181,1.135,1.135,0,0,1,.272.335.847.847,0,0,1,.086.372,1.269,1.269,0,0,1-.113.5,3.1,3.1,0,0,1-.408.612,9.474,9.474,0,0,1-1.188.441,3.412,3.412,0,0,1-.871.13,1.676,1.676,0,0,1-1.615-.939,7.334,7.334,0,0,1-.485-3.138q0-1.088.13-3.361T6.3,579.4c0-.6,0-1.061-.009-1.374s-.009-.6-.018-.857a4.877,4.877,0,0,1-.65-.222,3.692,3.692,0,0,1-.58-.3v-.13a2.629,2.629,0,0,1,.1-.7,3.551,3.551,0,0,1,.286-.689l.91-.082.095-2.617A2.425,2.425,0,0,1,7,572.059a1.429,1.429,0,0,1,.554-.118,1.237,1.237,0,0,1,.412.073,2.368,2.368,0,0,1,.5.272m-5.574,1.343a2.015,2.015,0,0,1,.78.445,2.15,2.15,0,0,1,.5.8l-.2.213a5.642,5.642,0,0,0-1.832,3.166,12.749,12.749,0,0,0,.757,2.789q.374,1.061.572,1.7.463,1.49.612,2.245a7.75,7.75,0,0,1,.146,1.43,4.9,4.9,0,0,1-.625,2.544,4.143,4.143,0,0,1-1.873,1.642,1.472,1.472,0,0,1-.716-.3,2.748,2.748,0,0,1-.558-.948,6.817,6.817,0,0,0,1.115-1.69,4.181,4.181,0,0,0,.372-1.71,5.73,5.73,0,0,0-.186-1.314q-.183-.755-.758-2.377A.55.55,0,0,1,.97,582.2,14.971,14.971,0,0,1,0,578.326a4.841,4.841,0,0,1,.753-2.613,6.512,6.512,0,0,1,2.158-2.094m70.823-2.924a.875.875,0,0,1,.144.016.944.944,0,0,1-.087-.372,1.146,1.146,0,0,1,.2-.635.919.919,0,0,1,.7-.448q.9.092.9,1.223c0,.092-.009.231-.029.417s-.029.325-.029.417q0,.465-.84.789a.956.956,0,0,1-.78-.511,1.347,1.347,0,0,1-.2-.7.779.779,0,0,1,.029-.2m-12.012.2a.837.837,0,0,1,.144.016.944.944,0,0,1-.087-.372,1.145,1.145,0,0,1,.2-.634.919.919,0,0,1,.7-.448q.9.093.9,1.223,0,.139-.029.419t-.029.417q0,.464-.84.789a.958.958,0,0,1-.78-.511,1.347,1.347,0,0,1-.2-.7.779.779,0,0,1,.029-.2" transform="translate(44.795 -542.962)" fill="#1f1a17" fill-rule="evenodd"/>
    <path id="Path_5" data-name="Path 5" d="M19.528,117.052l0-.016a.153.153,0,0,0,0,.016" transform="translate(-17.153 -102.8)" fill="#f7c200"/>
    <path id="Path_6" data-name="Path 6" d="M19.528,117.052l0-.016a.153.153,0,0,0,0,.016Z" transform="translate(-17.153 -102.8)" fill="none" stroke="#1f1a17" stroke-miterlimit="10" stroke-width="0.216"/>
    <path id="Path_7" data-name="Path 7" d="M17.6,24.727Z" transform="translate(-15.459 -21.719)" fill="#f7c200"/>
    <path id="Path_8" data-name="Path 8" d="M17.6,24.727Z" transform="translate(-15.459 -21.719)" fill="none" stroke="#1f1a17" stroke-miterlimit="10" stroke-width="0.216"/>
    <path id="Path_9" data-name="Path 9" d="M17.57,24.709h0Z" transform="translate(-15.429 -21.701)" fill="#f7c200"/>
    <path id="Path_10" data-name="Path 10" d="M17.57,24.709h0Z" transform="translate(-15.429 -21.701)" fill="none" stroke="#1f1a17" stroke-miterlimit="10" stroke-width="0.216"/>
    <g id="Group_1483" data-name="Group 1483" transform="translate(8.943 6.9)">
      <path id="Path_2" data-name="Path 2" d="M74.8,4.352c.131,1.167.349,2.58.432,3.991A7.962,7.962,0,0,1,74.5,12.8c-.443.985-1.5,1.2-3.1,1.87-2.579,1.079-7.489,2.426-9.209-.077a10.134,10.134,0,0,1-1.39-3.17C60.169.4,68.743-1.426,72.971.872c1.409.766,1.675,2.135,1.827,3.48" transform="translate(-54.319)" fill="#f7c200" fill-rule="evenodd"/>
      <path id="Path_3" data-name="Path 3" d="M99.011,359.6c-.787-2.006-.561-2.329-2.013-1.236-1.873,1.408.5,3.554.724,3.32a3.4,3.4,0,0,0,.8.917,2.15,2.15,0,0,0,.278.589c-.067-.421,1.039-1.592,1.373-1.821.493-.335.753-1.039,1.237-1.385.629-2.125-.051-3.4-.866-3.28-1.645.233-1.823,2.267-1.539,2.9m-5.065-3.582.1,10.433s1.07-.336,1.139-.344a27.551,27.551,0,0,1,3.82-.292c1.632.016,3.271.075,4.665.075.555-3.716-.352-6.4-.154-10.367.016-.311-3.567-.593-3.825-.555-3.5.511-4.138,1.408-4.574,1.133Z" transform="translate(-84.091 -318.582)" fill="#d9261c" fill-rule="evenodd"/>
      <path id="Path_4" data-name="Path 4" d="M116.934,307.926c.218,1.025,1.443,2.1,2.136,1.956,1.417,1.975,2.833.816,4.049.559l.365-1.1a2.922,2.922,0,0,0,1.119-1.978,15.164,15.164,0,0,0-2.149,1.394c-.465.366-3.292.7-3.716-.013-.467.183-.472.047-1.8-.821" transform="translate(-104.723 -275.866)" fill="#d9261c" fill-rule="evenodd"/>
      <path id="Path_11" data-name="Path 11" d="M25.981,47.378a2.4,2.4,0,0,0,1.394-2.22,2.578,2.578,0,0,0-.387-1.221,1.476,1.476,0,0,0-.7.308,1.27,1.27,0,0,0-.312.661h0l-.287,1.2a.327.327,0,0,1-.618-.008m.2,2.456v0h0v0Zm-.2-.291,0,.007a.06.06,0,0,1,0-.01Zm0,0v0l0,0h-.005m.26-3.872a1.249,1.249,0,0,1,.082.208,1.664,1.664,0,0,1,.454-.817,2.314,2.314,0,0,1,1.223-.509.4.4,0,0,1,.319.135,3.309,3.309,0,0,1,.6,1.725,3.526,3.526,0,0,1-.389,1.676,5.305,5.305,0,0,1-1.356,1.133h0l-.017.008a2.222,2.222,0,0,0-.971.614h0a.341.341,0,0,1-.317.314h0a.531.531,0,0,1-.331-.166h0a.675.675,0,0,1-.1-.128,2.717,2.717,0,0,1-.381-.341,1.814,1.814,0,0,1-.417-.606,2.774,2.774,0,0,1-.42-.589,3.86,3.86,0,0,1-.255-.606,2.323,2.323,0,0,1-.117-.691,1.363,1.363,0,0,1,.8-1.286c.968-.5,1.31-.618,1.595-.068M27.1,31.316c0-.034.005-.069.008-.1q.008-.094.016-.189l-.126.01c.036.094.071.189.1.283m-3.445,6.809a2.429,2.429,0,0,0,1.329.835,4.853,4.853,0,0,0,1.835.12,2.19,2.19,0,0,0,.561-.129l.34-.29c-.165.047-.307.091-.4.116a1.554,1.554,0,0,1-.344.056c-.124.009-.278.012-.452.009a4.944,4.944,0,0,1-2.34-.5,2.5,2.5,0,0,1-.527-.212m-.718.044a2.786,2.786,0,0,1-.29-.952.323.323,0,0,1,.535-.265,4.4,4.4,0,0,0,.544.472,1.971,1.971,0,0,0,.687.316.51.51,0,0,1,.211.167c.142.273,2.064.357,2.5.263h0c.162-.054.334-.094.5-.142a8.3,8.3,0,0,1,1.5-.365h0a.341.341,0,0,1,.317.317h0c0,.258-.293.578-.628.822a2.541,2.541,0,0,1-.746.389l-.314.268a1.873,1.873,0,0,1-.861.248,5.506,5.506,0,0,1-2.083-.138,2.9,2.9,0,0,1-1.879-1.4m4.518-2.022c-.009-.094,0-.458-.083-.458-.4,0-.3-.378-.225-.609,0-.058.032-.334.037-.348.038-.1.073-.185.073-.189a.341.341,0,0,1,.317-.314l.169-.01.072,0a.444.444,0,0,1,.216-.07,1.092,1.092,0,0,1,.621.241,2.22,2.22,0,0,1,.546.547.772.772,0,0,1-.047,1.1,1.867,1.867,0,0,1-.213.529.972.972,0,0,0-.124.291h0a.341.341,0,0,1-.317.317.567.567,0,0,0-.088.019.917.917,0,0,1-.241.041.412.412,0,0,1-.462-.371c-.107-.05-.162-.111-.206-.312-.017-.077-.027-.194-.047-.4m.463-1.3a.316.316,0,0,1,.05.136c.03.249-.028.466-.01.65s.114.336.126.458c.008.079-.013.229.063.266a.359.359,0,0,1,.122.132c.033-.075.072-.148.111-.223a1.055,1.055,0,0,0,.154-.4.459.459,0,0,1,.142-.263c.109-.073.078-.2,0-.317a1.577,1.577,0,0,0-.388-.381c-.059-.042-.108-.075-.142-.1a.287.287,0,0,1-.137.036h0c-.023,0-.053,0-.087,0m-2.8.456a.317.317,0,1,1,.567-.283h0c.03.06.063.133.1.218s.067.161.1.248a4.679,4.679,0,0,1,.328,1.366.317.317,0,1,1-.634,0,4.067,4.067,0,0,0-.283-1.143c-.029-.078-.06-.154-.089-.223s-.055-.124-.085-.183Zm-2.008.422-.431-.6a.472.472,0,0,1-.044-.283,1.4,1.4,0,0,1,.614-.7.96.96,0,0,1,.172-.074.694.694,0,0,1,.2-.034h0a.554.554,0,0,1,.223.094l.1.1h0l.1.1a.555.555,0,0,1,.094.223c0,.033.135.1.2.169a.834.834,0,0,1,.082.142l.084.309a.327.327,0,0,1-.17.366.855.855,0,0,1-.908.511.34.34,0,0,1-.317-.317m.187-.812c.086.127.205.309.3.472a.257.257,0,0,0,.174-.148c.021-.041.042-.079.063-.114l-.006-.021a1.444,1.444,0,0,1-.288-.387l-.012-.012a.78.78,0,0,0-.229.21m5.34-3.616-.008.381-.053,1.174-.029.6a.31.31,0,0,1-.348.283c-.075-.005-.164-.034-.291-.283l.015-.316.023-.1.01-.269.01-.269.02-.537-.011-.591,0-.3-.094-.03a.684.684,0,0,0-.121-.023q-.01.12-.02.242c-.047.58-.071,1.153-.071,1.729a.317.317,0,0,1-.634,0q0-.153,0-.305a.3.3,0,0,1-.047,0,.317.317,0,0,1-.317-.317,3.763,3.763,0,0,0-.326-1.258c-.129.02-.262.043-.4.067.131.355.277.692.4.955a.316.316,0,0,1-.574.265c-.138-.3-.306-.686-.451-1.09l-.24.058.006.028c.068.315-.022.606.045.606h0a.317.317,0,1,1,0,.634h0c-.323,0-.537-.53-.661-1.1-.2.059-.386.12-.563.184a9.377,9.377,0,0,0,.51.838.316.316,0,0,1-.527.349,9.519,9.519,0,0,1-.57-.944,2.536,2.536,0,0,0-.362.208.31.31,0,0,1,.085.053.32.32,0,0,1,.032.448h0l0,0a2.414,2.414,0,0,0-.262.378,6.411,6.411,0,0,0-.3.585,6.9,6.9,0,0,0-.735,3.535h0c.039.145.084.344.131.558a3.888,3.888,0,0,0,.766,1.933h0a5.063,5.063,0,0,0,1.988.588c.228.038.441.073.623.112h0a2.709,2.709,0,0,0,.421.052c.162.008.336.008.517,0a14.574,14.574,0,0,0,2.813-.482h0a.843.843,0,0,0,.276-.133,2.344,2.344,0,0,0,.331-.3A8.755,8.755,0,0,0,31.1,37.188c.047-.132.094-.274.132-.422s.073-.309.1-.472a5.48,5.48,0,0,0-.1-2.47h0c-.018-.057-.038-.113-.058-.167a.308.308,0,0,1-.044.073l-.009.009v.025a.317.317,0,0,1-.634,0v-.154a.561.561,0,0,1,.094-.224l.015-.015a2.078,2.078,0,0,1,.138-.562,3.5,3.5,0,0,0-.674-.718l-.021.45a.317.317,0,1,1-.633-.027l.039-.835a6.483,6.483,0,0,0-.809-.378m-.017-1.632.024.959a8.092,8.092,0,0,1,.835.352l.032-.684a.317.317,0,0,1,.634.027L30.1,31.332q.112.074.221.155a4.225,4.225,0,0,1,.723.679l.017-.032a3.693,3.693,0,0,0,.368-.86h0a.316.316,0,0,1,.619.131h0a4.1,4.1,0,0,1-.425,1.021c-.058.111-.116.221-.169.331a4.571,4.571,0,0,1,.378.869h0a6.139,6.139,0,0,1,.119,2.774c-.031.179-.069.357-.114.528a5.088,5.088,0,0,1-.154.491h0l0,.01a9.5,9.5,0,0,1-1.57,2.513,2.944,2.944,0,0,1-.427.375,1.464,1.464,0,0,1-.472.23,15.221,15.221,0,0,1-2.947.5c-.2.009-.391.01-.57,0a3.312,3.312,0,0,1-.519-.064h0c-.173-.036-.378-.071-.6-.107a5.449,5.449,0,0,1-2.271-.711h0a4.176,4.176,0,0,1-.992-2.3c-.042-.189-.08-.36-.127-.53h0a7.5,7.5,0,0,1,.769-3.961c.081-.18.162-.348.244-.5a.314.314,0,0,1-.206-.3h0a.439.439,0,0,1,.11-.283l.014-.015.006-.019a1.785,1.785,0,0,1,.966-.868,2.219,2.219,0,0,1-.041-1.562.316.316,0,0,1,.589.228,1.588,1.588,0,0,0,.033,1.08c.221-.085.457-.163.7-.236a4.412,4.412,0,0,1-.055-.495h0a.317.317,0,0,1,.634,0h0a3,3,0,0,0,.035.331l.158-.038-.014-.053a3.648,3.648,0,0,1-.142-.908h0a.317.317,0,1,1,.634,0h0a3.035,3.035,0,0,0,.12.745l.024.085c.119-.023.236-.043.354-.063a5.413,5.413,0,0,1-.408-1.405h0a.316.316,0,0,1,.629-.062h0a5.518,5.518,0,0,0,.425,1.378c.153-.017.3-.029.432-.037q.047-.457.113-.939a.316.316,0,0,1,.626.082c-.037.283-.071.572-.1.863q.083.009.153.024v-.242l0-.425,0-.369a.32.32,0,0,1,.321-.313c.175,0,.315.145.334.6m-.283,13.353h0m0,0h0m-8.874-10.8c.092-.563.149-1.144.186-1.692a3.117,3.117,0,0,0-.323-.052,2.4,2.4,0,0,0-.236,1.3,2.078,2.078,0,0,0,.278.356.978.978,0,0,0,.094.084m.8-1.538c-.038.484-.094.978-.177,1.464a.318.318,0,0,1,.266.1,1.98,1.98,0,0,0,.287-.222,4.037,4.037,0,0,1,.159-.756c.04-.142.079-.283.105-.422-.2-.04-.414-.1-.64-.162M16.306,13.9c-.009-.979.007-1.538.037-2.075s.074-1.054.129-1.533a3.392,3.392,0,0,1,.206-.886,5.358,5.358,0,0,1,.412-.868,3.231,3.231,0,0,1,1.158-1.217c.416-.258.886-.46,1.48-.878a5.748,5.748,0,0,1,.886-.51,4.531,4.531,0,0,1,.449-.18,2.657,2.657,0,0,1,.408-.105,2.686,2.686,0,0,1,.685-.022,29.231,29.231,0,0,1,3.664.27A9.347,9.347,0,0,1,29.582,7.13h0a2.749,2.749,0,0,1,.513.59,2.58,2.58,0,0,1,.334.621,10.091,10.091,0,0,1,.472,4.351,19.772,19.772,0,0,1-.331,2.441c-.148.748-.331,1.476-.525,2.161h0c-.042.183-.091.385-.147.6s-.118.43-.187.646-.151.451-.238.664a4.8,4.8,0,0,1-.286.591l0,.005,0,0c-1.053,1.669-3.214,2.289-5.294,2.245l-.428-.028a3.723,3.723,0,0,1,.61.588,1.707,1.707,0,0,0,.657.574h0c.3.036.3.567,0,.6a5.251,5.251,0,0,0-.832.256c-.687.246-1.471.526-1.9.312h0a.4.4,0,0,1-.169-.272v-.118l-.184.353a9.764,9.764,0,0,0-1.271,3.344c-.012.117-.028,1.014-.032,1.665,0,.211-.011.43-.021.653l.077.021a4.641,4.641,0,0,0,.9.2h0a.374.374,0,0,1,.349.349,3.391,3.391,0,0,1-.165.91,2.842,2.842,0,0,0-.138.725h0a.614.614,0,0,1-.1.246,2.8,2.8,0,0,1-.549.437,1.944,1.944,0,0,1-.185.094,43.3,43.3,0,0,1,.172,4.481c-.011,1.411-.069,2.815-.147,4.12.771.027,1.546.1,2.32.182a28.183,28.183,0,0,0,2.822.189c.271,0,.639.029,1.052.062a6.657,6.657,0,0,0,2.528-.032h0a.322.322,0,0,1,.541.228V42.2a2.078,2.078,0,0,0,.756-.106c.44-.035.873-.074,1.315-.125.221-.025.445-.054.673-.087a12.179,12.179,0,0,0,1.436-.263c.415-.125,1.039-.311,1.1-.334.186-.072.32-.122.459-.182a.479.479,0,0,1,.094-.212c.031-.047.083-.079.085-.142l.035-.969.035-.969.1-1.216a.317.317,0,1,1,.634.032l-.131,1.8-.015.91a7.36,7.36,0,0,0,.6-.708,3.835,3.835,0,0,1,1.352-1.28h0a.316.316,0,0,1,.242.584h0a3.455,3.455,0,0,0-1.1,1.082c-.189.242-.373.482-.57.69l2.709.1a.317.317,0,1,1-.022.634l-2.645-.1a5.356,5.356,0,0,1,.607.443,2.333,2.333,0,0,1,.683.221,1.612,1.612,0,0,0,.6.181.317.317,0,0,1,0,.634,2.074,2.074,0,0,1-.85-.236,1.552,1.552,0,0,0-.562-.174.559.559,0,0,1-.224-.094,4.8,4.8,0,0,0-.728-.534l-.086.671-.042.487a.317.317,0,0,1-.629-.072l.05-.627.083-.6a8.522,8.522,0,0,1-2.456.777c-.7.112-1.346.156-2.125.242l-.494.06-.9.111-.078.009-.117,7.839c0,.145,0,.29,0,.435a7.715,7.715,0,0,1-.18,2.151c-.032.824-.137,2.575-.236,4.218-.074,1.213-.142,2.367-.176,3.022-.01.2-.017.355-.02.451,0,.029-.126.482-.323.482h-.011c-.9-.034-1.481-.064-1.9-.086a6.908,6.908,0,0,0-1.454.008h0a11.04,11.04,0,0,1-2.506-.239l-.268-.047a.324.324,0,0,1,.1-.64c.127.02.2.032.276.047a10.679,10.679,0,0,0,2.32.211v.023h0a6.874,6.874,0,0,1,1.564-.059c.367.02.79.069,1.481.1,0-.088.078-.165.084-.276.035-.7.1-1.835.176-3.029.087-1.441.179-2.966.222-3.859l-4.108-.059c-.241,0-.608.016-1.032.034a16.308,16.308,0,0,1-3.836-.117.311.311,0,0,1-.069.008h0c-.668,0-1.627.152-2.739.227a10.2,10.2,0,0,1-3.477-.242.324.324,0,0,1-.128-.079c-.082-.013-.172-.031-.263-.047-.16-.03-.321-.061-.358-.061a.387.387,0,0,1-.355-.311h0c-.043-.519-.128-1.1-.217-1.706a14.821,14.821,0,0,1-.2-4.569h0a2.9,2.9,0,0,1,.16-.468.378.378,0,0,1,.472-.218.34.34,0,0,1,.2.455s-.119.277-.119.283,0,.053,0,.057a14.358,14.358,0,0,0,.208,4.367c.077.523.151,1.024.2,1.48l.164.031c.16.03.321.061.358.061a.372.372,0,0,1,.265.126,9.96,9.96,0,0,0,3.059.169c.835-.057,1.645-.157,2.255-.2a.262.262,0,0,1,.05-.071,4.181,4.181,0,0,0,.214-1.583,5.023,5.023,0,0,1,.085-.941h0a.378.378,0,0,1,.3-.23l-.047-7.428-.189-.59a.326.326,0,0,1,.229-.4c.079-1.316.138-2.722.149-4.121.011-1.474-.03-2.945-.158-4.3a3.848,3.848,0,0,1-2.1,2.9,3.177,3.177,0,0,0-.406.136,3.422,3.422,0,0,0-1.458,1.859,9.2,9.2,0,0,1-.8,1.389A5.7,5.7,0,0,1,13.671,40.8a.323.323,0,0,1-.277.034c-.182-.037-.244-.187-.142-.458a6.323,6.323,0,0,0,2.12-2.654c.443-.9,1.039-2.1,2.172-2.267.95-.142,1.482-1.2,1.782-2.5a1.712,1.712,0,0,1-.442-.326,2.891,2.891,0,0,1-.434-.576.888.888,0,0,1-.047-.177c0-1.446.365-1.823.489-1.953,0,0,.006,0,.007,0a.364.364,0,0,1,.276-.151,2.863,2.863,0,0,1,.519.055c.005-.128.009-.252.013-.372.012-.242.018-.485.016-.9-.006-2.318,1.222-4.184,2.075-6.062.022-.047.041-.1.059-.15a.944.944,0,0,1-.033-.3.373.373,0,0,1,.13-.236l-.2-.042c-.059-.013-.118-.027-.192-.047a12.956,12.956,0,0,1-3.487-1.616,3.173,3.173,0,0,1-1.208-1.765h0a13.022,13.022,0,0,1-.387-1.908,23.1,23.1,0,0,1-.176-2.524M29.236,7.662Zm0,0h0ZM17.076,10.92A19.621,19.621,0,0,0,17,13.2c.01.759.052,1.52.1,2.317q.025.2.047.406.053.443.106.887h0A3.43,3.43,0,0,0,18.7,19.6c.064.051.129.1.189.155a12.729,12.729,0,0,0,2.858,1.222,10.315,10.315,0,0,0,2.861.3,8.483,8.483,0,0,0,1.92-.335,5.458,5.458,0,0,0,1.752-1.025,5.341,5.341,0,0,0,.742-1.338,9.934,9.934,0,0,0,.444-1.538h0l.466-1.733a17.9,17.9,0,0,0,.357-3.164A15.272,15.272,0,0,0,30,9a3.081,3.081,0,0,0-.519-1.009,3.727,3.727,0,0,0-.949-.691,10.923,10.923,0,0,0-2.983-.867,26.645,26.645,0,0,0-3.184-.241,5.332,5.332,0,0,0-1.016.151,3.962,3.962,0,0,0-.886.339,5.306,5.306,0,0,0-.736.509,5.2,5.2,0,0,1-.6.422h0a3.929,3.929,0,0,0-1.489,1.386,4.3,4.3,0,0,0-.567,1.927m5.367,12.906a6.044,6.044,0,0,0,1.251-.362c.094-.034.189-.068.281-.1-.11-.1-.222-.22-.338-.34-.169-.174-.346-.357-.524-.51a3.615,3.615,0,0,0-.456-.288.885.885,0,0,0-.142.248,4.337,4.337,0,0,1-.038,1.029c-.016.131-.027.226-.036.322m-1.965,18.6c0,.026.013.075.013.081l.047,7.665a.34.34,0,0,1-.317.318c-.018,0-.02,0-.031.015s0,.016-.005.025c-.017.156-.026.391-.036.65a6.485,6.485,0,0,1-.2,1.653.3.3,0,0,1,.034.024,16.737,16.737,0,0,0,3.68.076c.425-.018.795-.034,1.06-.034h0l4.124.059v-.047h0a.325.325,0,0,1,.122-.254,9.3,9.3,0,0,0,.065-1.527c0-.146,0-.294,0-.446v0l.118-7.865a.223.223,0,0,1-.063-.153,11.352,11.352,0,0,1-2.412-.031c-.413-.033-.781-.062-1-.062a28.552,28.552,0,0,1-2.884-.193c-.765-.077-1.53-.153-2.3-.179q-.008.116-.016.231m4.6,3.678h0c-.058-.265-.106-.519-.147-.734a3.363,3.363,0,0,0-.165-.685c-.017-.032-.2.058-.743.34a.769.769,0,0,0-.453.724,1.7,1.7,0,0,0,.087.5,3.218,3.218,0,0,0,.213.5c.111.213.487.684.489.842,0,.036.119.074.248.21s.129.256.174.257h0a.26.26,0,0,1,.079.013,3.363,3.363,0,0,1,1.124-.7h0" transform="translate(-10.479 -5.039)" fill="#1f1a17"/>
    </g>
    <path id="Path_12" data-name="Path 12" d="M300.69,131.169l0-.016a.147.147,0,0,0,0,.016" transform="translate(-264.115 -115.2)" fill="#f7c200"/>
    <path id="Path_13" data-name="Path 13" d="M300.69,131.169l0-.016a.147.147,0,0,0,0,.016Z" transform="translate(-264.115 -115.2)" fill="none" stroke="#1f1a17" stroke-miterlimit="10" stroke-width="0.216"/>
    <path id="Path_14" data-name="Path 14" d="M298.764,38.843Z" transform="translate(-262.422 -34.119)" fill="#f7c200"/>
    <path id="Path_15" data-name="Path 15" d="M298.764,38.843Z" transform="translate(-262.422 -34.119)" fill="none" stroke="#1f1a17" stroke-miterlimit="10" stroke-width="0.216"/>
    <path id="Path_16" data-name="Path 16" d="M298.732,38.825h0Z" transform="translate(-262.392 -34.101)" fill="#f7c200"/>
    <path id="Path_17" data-name="Path 17" d="M298.732,38.825h0Z" transform="translate(-262.392 -34.101)" fill="none" stroke="#1f1a17" stroke-miterlimit="10" stroke-width="0.216"/>
  </g>
</svg>
