<svg width="800" height="800" viewBox="0 0 800 800" fill="none" xmlns="http://www.w3.org/2000/svg">
<path d="M750.078 201.875H192.031L163.828 69.8438H49.9219V104.219H136.016L156.875 201.875L235.234 568.984L649.297 569.297V534.922L263.047 534.688L245.391 451.953H650L750.078 201.875ZM699.297 236.25L668.437 313.281H215.859L199.375 236.25H699.297ZM238.125 417.578L218.516 325.781H663.437L626.719 417.578H238.125Z" fill="#1E2125"/>
<path d="M293.438 633.281C315.859 633.281 334.062 651.484 334.062 673.906C334.062 696.328 315.859 714.531 293.438 714.531C271.016 714.531 252.812 696.328 252.812 673.906C252.812 651.484 271.016 633.281 293.438 633.281ZM293.438 617.656C262.422 617.656 237.188 642.812 237.188 673.906C237.188 705 262.344 730.156 293.438 730.156C324.531 730.156 349.688 705 349.688 673.906C349.688 642.812 324.453 617.656 293.438 617.656ZM571.875 633.281C594.297 633.281 612.5 651.484 612.5 673.906C612.5 696.328 594.297 714.531 571.875 714.531C549.453 714.531 531.25 696.328 531.25 673.906C531.25 651.484 549.453 633.281 571.875 633.281ZM571.875 617.656C540.859 617.656 515.625 642.812 515.625 673.906C515.625 705 540.781 730.156 571.875 730.156C602.891 730.156 628.125 705 628.125 673.906C628.125 642.812 602.891 617.656 571.875 617.656ZM349.609 236.25H362.109V417.578H349.609V236.25ZM509.375 236.25H521.875V417.578H509.375V236.25Z" fill="#00008B"/>
</svg>
