<svg width="800" height="800" viewBox="0 0 800 800" fill="none" xmlns="http://www.w3.org/2000/svg">
<g id="individualus-sprendimai 1">
<path id="Vector" d="M392.188 235.313C392.188 237.385 393.011 239.372 394.476 240.837C395.941 242.302 397.928 243.125 400 243.125C402.072 243.125 404.059 242.302 405.524 240.837C406.989 239.372 407.812 237.385 407.812 235.313C407.812 233.241 406.989 231.253 405.524 229.788C404.059 228.323 402.072 227.5 400 227.5C397.928 227.5 395.941 228.323 394.476 229.788C393.011 231.253 392.188 233.241 392.188 235.313Z" fill="#00008B"/>
<path id="Vector_2" d="M312.734 581.641C314.375 581.094 315.938 580.547 317.578 580.078C316.016 580.547 314.375 581.094 312.734 581.641ZM312.734 581.641C314.375 581.094 315.938 580.547 317.578 580.078C316.016 580.547 314.375 581.094 312.734 581.641Z" fill="#39393A"/>
<path id="Vector_3" d="M399.844 200.469C418.906 200.469 434.375 215.937 434.375 235C434.375 254.062 418.906 269.531 399.844 269.531C380.781 269.531 365.312 254.062 365.312 235C365.312 215.937 380.859 200.469 399.844 200.469ZM399.844 184.844C372.109 184.844 349.688 207.266 349.688 235C349.688 262.734 372.109 285.156 399.844 285.156C427.578 285.156 450 262.734 450 235C450 207.266 427.578 184.844 399.844 184.844Z" fill="#00008B"/>
<path id="Vector_4" d="M570.859 413.672C571.172 406.875 571.328 400.078 571.328 393.203C571.328 252.891 504.063 128.281 400 49.8438C296.016 128.281 228.75 252.891 228.75 393.203C228.75 400.078 228.906 406.875 229.219 413.594C185.469 457.344 158.438 517.734 158.438 584.453C158.438 632.656 172.5 677.5 196.797 715.156C220.469 676.25 255.156 644.766 296.563 625.078C327.031 610.547 361.172 602.422 397.187 602.422C434.922 602.422 470.547 611.328 502.109 627.188C543.125 647.734 577.344 680.078 600.234 719.688C626.328 681.094 641.563 634.609 641.563 584.453C641.563 517.734 614.531 457.422 570.859 413.672ZM274.297 299.531C281.484 269.922 292.188 241.172 306.016 213.984C319.652 187.189 336.324 162.05 355.703 139.062C369.297 122.969 384.141 107.891 400.078 94.1406C416.016 107.891 430.859 122.969 444.453 139.062C463.828 162.109 480.547 187.344 494.141 213.984C507.969 241.172 518.672 269.922 525.859 299.531C532.656 327.5 536.406 356.328 536.953 385.391C497.969 358.594 450.781 342.891 400 342.891C349.219 342.891 302.109 358.594 263.203 385.391C263.75 356.328 267.5 327.5 274.297 299.531ZM203.516 650.469C196.406 629.375 192.812 607.109 192.812 584.531C192.812 556.563 198.281 529.375 209.063 503.906C215.625 488.438 223.906 473.906 233.984 460.547C241.562 508.594 257.031 554.062 279.141 595.391C250.703 609.297 225.234 627.891 203.516 650.469ZM488.047 583.828C487.5 583.594 486.875 583.438 486.328 583.203C486.016 583.047 485.625 582.969 485.313 582.813C484.844 582.656 484.297 582.422 483.828 582.266C483.203 582.031 482.656 581.875 482.031 581.641C481.406 581.406 480.859 581.25 480.234 581.094L479.531 580.859C478.75 580.625 477.891 580.313 477.109 580.078C476.172 579.766 475.234 579.531 474.375 579.219L472.031 578.516C471.875 578.438 471.719 578.438 471.484 578.359C470.625 578.125 469.687 577.813 468.828 577.578C467.891 577.344 466.953 577.109 466.094 576.875L463.281 576.172L460.469 575.469C459.688 575.234 458.828 575.078 458.047 574.922C457.109 574.688 456.172 574.531 455.234 574.297C454.219 574.062 453.281 573.828 452.266 573.672H452.031C451.328 573.516 450.547 573.359 449.844 573.203C449.531 573.125 449.297 573.125 448.984 573.047C448.125 572.891 447.266 572.734 446.328 572.578C445.391 572.422 444.453 572.266 443.516 572.031L439.297 571.328C438.594 571.25 437.813 571.094 437.109 571.016C436.484 570.938 435.859 570.781 435.156 570.703C433.125 570.391 431.172 570.156 429.141 569.922C428.203 569.844 427.344 569.687 426.406 569.609H426.094C425.391 569.531 424.687 569.453 423.906 569.375C423.047 569.297 422.266 569.219 421.406 569.141C420.078 568.984 418.75 568.906 417.422 568.828C416.797 568.75 416.25 568.75 415.625 568.672C414.922 568.594 414.141 568.594 413.438 568.516C413.125 568.516 412.813 568.516 412.5 568.437C411.641 568.359 410.859 568.359 410 568.281C409.609 568.281 409.219 568.203 408.828 568.203C407.813 568.125 406.797 568.125 405.781 568.125C405.156 568.125 404.609 568.047 403.984 568.047C403.047 568.047 402.109 568.047 401.25 567.969H390.391C388.594 567.969 386.797 568.047 385 568.125C384.297 568.125 383.516 568.203 382.813 568.203C382.188 568.203 381.641 568.281 381.016 568.281C379.922 568.359 378.828 568.438 377.812 568.516C376.719 568.594 375.703 568.672 374.609 568.75C373.516 568.828 372.5 568.906 371.406 569.063C370.937 569.063 370.469 569.141 370 569.219L363.906 569.922C363.047 570 362.266 570.156 361.406 570.234C360.625 570.313 359.766 570.469 358.984 570.547C356.484 570.938 353.984 571.25 351.562 571.719C351.016 571.797 350.469 571.875 349.922 572.031C349.219 572.109 348.594 572.266 347.891 572.422C347.031 572.578 346.094 572.734 345.234 572.891C344.531 573.047 343.906 573.125 343.203 573.281C342.891 573.359 342.578 573.359 342.344 573.438C341.797 573.516 341.25 573.672 340.703 573.75C339.766 573.984 338.828 574.141 337.891 574.375C336.953 574.609 336.016 574.766 335.078 575C334.922 575 334.766 575.078 334.609 575.078C334.219 575.156 333.828 575.234 333.437 575.391C332.578 575.625 331.641 575.859 330.703 576.094C329.687 576.328 328.75 576.563 327.734 576.875C327.422 576.953 327.031 577.031 326.641 577.188C325.625 577.5 324.531 577.734 323.516 578.047C322.344 578.359 321.172 578.75 319.922 579.063C319.141 579.297 318.281 579.531 317.5 579.844C315.859 580.313 314.297 580.859 312.656 581.406C312.109 581.563 311.563 581.797 311.016 581.953C299.297 560.469 289.609 537.891 282.109 514.609C272.969 486.406 267.109 457.109 264.531 427.422C264.063 422.187 263.75 417.031 263.516 411.797C263.437 410.859 263.438 409.922 263.438 408.984C263.359 408.047 263.359 407.109 263.359 406.172C263.359 405.234 263.281 404.297 263.281 403.359C263.281 402.422 263.203 401.484 263.203 400.469C277.891 389.531 293.828 380.313 310.859 373.125C339.062 361.172 369.063 355.156 400 355.156C430.938 355.156 460.937 361.25 489.141 373.125C506.172 380.313 522.109 389.453 536.797 400.469V400.547C536.797 401.328 536.797 402.031 536.719 402.812C536.719 403.906 536.641 405 536.641 406.172C536.641 406.719 536.641 407.188 536.562 407.734C536.484 409.141 536.484 410.469 536.406 411.875C536.172 417.109 535.781 422.266 535.391 427.5C532.813 457.578 526.797 487.266 517.422 515.781C509.844 539.453 500 562.187 488.047 583.828ZM594.922 654.844C573.438 631.466 547.962 612.101 519.688 597.656C542.422 555.703 558.359 509.531 566.094 460.547C576.094 473.906 584.375 488.359 590.938 503.906C601.719 529.453 607.188 556.563 607.188 584.531C607.188 608.75 603.047 632.422 594.922 654.844Z" fill="#1E2125"/>
<g id="flame">
<path id="Vector_5" d="M400 640.078C406.797 640.078 419.297 657.969 419.297 687.266C419.297 716.563 406.797 734.453 400 734.453C393.203 734.453 380.703 716.563 380.703 687.266C380.703 657.969 393.203 640.078 400 640.078ZM400 624.453C380.703 624.453 365.078 652.578 365.078 687.266C365.078 721.953 380.703 750.078 400 750.078C419.297 750.078 434.922 721.953 434.922 687.266C434.922 652.578 419.297 624.453 400 624.453Z" fill="#00008B"/>
</g>
</g>
</svg>
