<svg width="800" height="800" viewBox="0 0 800 800" fill="none" xmlns="http://www.w3.org/2000/svg">
<path d="M392.188 400C392.188 402.072 393.011 404.059 394.476 405.524C395.941 406.989 397.928 407.812 400 407.812C402.072 407.812 404.059 406.989 405.524 405.524C406.989 404.059 407.812 402.072 407.812 400C407.812 397.928 406.989 395.941 405.524 394.476C404.059 393.011 402.072 392.188 400 392.188C397.928 392.188 395.941 393.011 394.476 394.476C393.011 395.941 392.188 397.928 392.188 400Z" fill="#00008B"/>
<path d="M400 239.687C421.641 239.687 442.656 243.906 462.344 252.266C481.406 260.312 498.594 271.875 513.281 286.641C527.969 301.406 539.531 318.516 547.656 337.578C556.016 357.344 560.234 378.281 560.234 399.922C560.234 421.562 556.016 442.578 547.656 462.266C539.609 481.328 528.047 498.516 513.281 513.203C498.594 527.891 481.406 539.453 462.344 547.578C442.578 555.938 421.641 560.156 400 560.156C378.359 560.156 357.344 555.938 337.656 547.578C318.594 539.531 301.406 527.969 286.719 513.203C272.031 498.516 260.469 481.328 252.344 462.266C243.984 442.5 239.766 421.562 239.766 399.922C239.766 378.281 243.984 357.266 252.344 337.578C260.391 318.516 271.953 301.328 286.719 286.641C301.484 271.953 318.594 260.391 337.656 252.266C357.344 243.984 378.359 239.687 400 239.687ZM400 222.5C302.031 222.5 222.578 301.953 222.578 399.922C222.578 497.891 302.031 577.422 400 577.422C497.969 577.422 577.422 497.969 577.422 400C577.422 302.031 497.969 222.5 400 222.5Z" fill="#00008B"/>
<path d="M400 483.359C353.984 483.359 316.562 445.937 316.562 399.922C316.562 353.906 353.984 316.484 400 316.484C446.016 316.484 483.437 353.906 483.437 399.922C483.437 445.937 446.016 483.359 400 483.359ZM400 332.188C362.578 332.188 332.188 362.578 332.188 400C332.188 437.422 362.578 467.812 400 467.812C437.422 467.812 467.812 437.422 467.812 400C467.812 362.578 437.422 332.188 400 332.188Z" fill="#00008B"/>
<path d="M425.156 83.8281L451.797 155.938L457.578 171.484L473.359 176.641C481.406 179.297 498.437 186.719 507.266 190.781L521.875 197.5L536.406 190.547L605.078 157.891L641.328 194.219L609.141 264.063L602.188 279.141L609.688 293.984C615 304.453 619.531 315.469 623.281 326.719L628.516 342.734L644.375 348.359L716.016 373.828V425.156L643.906 451.797L628.359 457.578L623.203 473.359C619.531 484.609 614.922 495.547 609.609 506.094L601.953 521.172L609.219 536.406L641.875 605.078L605.547 641.406L535.938 609.141L520.859 602.188L506.016 609.688C495.547 615 484.531 619.531 473.281 623.281L457.266 628.516L451.641 644.375L426.172 716.016H374.844L348.203 643.906L342.422 628.359L326.641 623.203C318.594 620.547 301.563 613.125 292.734 609.062L278.125 602.344L263.594 609.297L194.922 641.953L158.672 605.625L190.859 535.859L197.812 520.781L190.313 505.937C185 495.469 180.469 484.453 176.719 473.203L171.484 457.188L155.625 451.563L83.9844 426.094V374.766L156.094 348.125L171.641 342.344L176.797 326.563C179.453 318.516 186.875 301.484 190.937 292.656L197.656 278.047L190.703 263.516L158.047 194.844L194.297 158.594L264.063 190.781L279.141 197.734L293.984 190.234C304.453 184.922 315.469 180.391 326.719 176.641L342.734 171.406L348.359 155.547L373.828 83.9063H425.156M449.141 49.4531H349.531L315.938 143.984C302.969 148.281 290.391 153.437 278.359 159.531L186.797 117.344L116.406 187.734L159.531 278.359C159.531 278.359 148.203 302.891 143.984 315.938L49.4531 350.859V450.391L143.984 483.984C148.281 496.953 153.437 509.453 159.531 521.484L117.344 613.047L187.734 683.438L278.359 640.312C278.359 640.312 302.891 651.641 315.938 655.859L350.859 750.391H450.391L483.984 655.859C496.953 651.563 509.453 646.406 521.484 640.312L613.047 682.5L683.438 612.109L640.312 521.484C646.406 509.453 651.641 496.953 655.859 483.984L750.391 449.062V349.531L655.859 315.938C651.563 302.969 646.406 290.469 640.312 278.438L682.5 186.875L612.109 116.484L521.562 159.609C521.562 159.609 496.953 148.281 483.984 144.062L449.141 49.4531Z" fill="#00008B"/>
</svg>
