<svg width="800" height="800" viewBox="0 0 800 800" fill="none" xmlns="http://www.w3.org/2000/svg">
<g id="reprezentacines-svetaines 1">
<path id="Vector" d="M49.9219 124.219V675.781H750.078V124.219H49.9219ZM715.703 641.406H84.2969V632.344L235.547 481.094L328.359 573.906L337.188 582.734L346.016 573.906L598.359 321.563L715.703 438.906V641.406ZM715.703 421.172L598.359 303.828L337.188 565.078L235.547 463.359L84.2969 614.609V158.594H715.703V421.172Z" fill="#1E2125"/>
<g id="sun">
<path id="Vector_2" d="M239.609 349.141C205.547 349.141 177.812 321.406 177.812 287.344C177.812 253.281 205.547 225.547 239.609 225.547C273.672 225.547 301.406 253.281 301.406 287.344C301.406 321.406 273.672 349.141 239.609 349.141ZM239.609 238.047C212.422 238.047 190.312 260.156 190.312 287.344C190.312 314.531 212.422 336.641 239.609 336.641C266.797 336.641 288.906 314.531 288.906 287.344C288.906 260.156 266.797 238.047 239.609 238.047Z" fill="#00008B"/>
<path id="Vector_3" d="M231.484 197.109C231.484 199.181 232.307 201.169 233.773 202.634C235.238 204.099 237.225 204.922 239.297 204.922C241.369 204.922 243.356 204.099 244.821 202.634C246.286 201.169 247.109 199.181 247.109 197.109C247.109 195.037 246.286 193.05 244.821 191.585C243.356 190.12 241.369 189.297 239.297 189.297C237.225 189.297 235.238 190.12 233.773 191.585C232.307 193.05 231.484 195.037 231.484 197.109Z" fill="#00008B"/>
<path id="Vector_4" d="M186.406 209.297C186.406 211.369 187.229 213.356 188.694 214.821C190.16 216.286 192.147 217.109 194.219 217.109C196.291 217.109 198.278 216.286 199.743 214.821C201.208 213.356 202.031 211.369 202.031 209.297C202.031 207.225 201.208 205.238 199.743 203.773C198.278 202.307 196.291 201.484 194.219 201.484C192.147 201.484 190.16 202.307 188.694 203.773C187.229 205.238 186.406 207.225 186.406 209.297Z" fill="#00008B"/>
<path id="Vector_5" d="M153.438 242.5C153.438 244.572 154.261 246.559 155.726 248.024C157.191 249.489 159.178 250.312 161.25 250.312C163.322 250.312 165.309 249.489 166.774 248.024C168.239 246.559 169.062 244.572 169.062 242.5C169.062 240.428 168.239 238.441 166.774 236.976C165.309 235.511 163.322 234.688 161.25 234.688C159.178 234.688 157.191 235.511 155.726 236.976C154.261 238.441 153.438 240.428 153.438 242.5Z" fill="#00008B"/>
<path id="Vector_6" d="M141.484 287.656C141.484 289.728 142.307 291.715 143.773 293.181C145.238 294.646 147.225 295.469 149.297 295.469C151.369 295.469 153.356 294.646 154.821 293.181C156.286 291.715 157.109 289.728 157.109 287.656C157.109 285.584 156.286 283.597 154.821 282.132C153.356 280.667 151.369 279.844 149.297 279.844C147.225 279.844 145.238 280.667 143.773 282.132C142.307 283.597 141.484 285.584 141.484 287.656Z" fill="#00008B"/>
<path id="Vector_7" d="M153.75 332.734C153.75 334.806 154.573 336.794 156.038 338.259C157.503 339.724 159.49 340.547 161.562 340.547C163.635 340.547 165.622 339.724 167.087 338.259C168.552 336.794 169.375 334.806 169.375 332.734C169.375 330.662 168.552 328.675 167.087 327.21C165.622 325.745 163.635 324.922 161.562 324.922C159.49 324.922 157.503 325.745 156.038 327.21C154.573 328.675 153.75 330.662 153.75 332.734Z" fill="#00008B"/>
<path id="Vector_8" d="M186.875 365.625C186.875 367.697 187.698 369.684 189.163 371.149C190.628 372.614 192.615 373.438 194.688 373.438C196.76 373.438 198.747 372.614 200.212 371.149C201.677 369.684 202.5 367.697 202.5 365.625C202.5 363.553 201.677 361.566 200.212 360.101C198.747 358.636 196.76 357.812 194.688 357.812C192.615 357.812 190.628 358.636 189.163 360.101C187.698 361.566 186.875 363.553 186.875 365.625Z" fill="#00008B"/>
<path id="Vector_9" d="M232.031 377.578C232.031 379.65 232.854 381.637 234.319 383.102C235.785 384.568 237.772 385.391 239.844 385.391C241.916 385.391 243.903 384.568 245.368 383.102C246.833 381.637 247.656 379.65 247.656 377.578C247.656 375.506 246.833 373.519 245.368 372.054C243.903 370.589 241.916 369.766 239.844 369.766C237.772 369.766 235.785 370.589 234.319 372.054C232.854 373.519 232.031 375.506 232.031 377.578Z" fill="#00008B"/>
<path id="Vector_10" d="M277.188 365.391C277.188 367.463 278.011 369.45 279.476 370.915C280.941 372.38 282.928 373.203 285 373.203C287.072 373.203 289.059 372.38 290.524 370.915C291.989 369.45 292.812 367.463 292.812 365.391C292.812 363.319 291.989 361.331 290.524 359.866C289.059 358.401 287.072 357.578 285 357.578C282.928 357.578 280.941 358.401 279.476 359.866C278.011 361.331 277.188 363.319 277.188 365.391Z" fill="#00008B"/>
<path id="Vector_11" d="M310.078 332.188C310.078 334.26 310.901 336.247 312.366 337.712C313.831 339.177 315.819 340 317.891 340C319.963 340 321.95 339.177 323.415 337.712C324.88 336.247 325.703 334.26 325.703 332.188C325.703 330.115 324.88 328.128 323.415 326.663C321.95 325.198 319.963 324.375 317.891 324.375C315.819 324.375 313.831 325.198 312.366 326.663C310.901 328.128 310.078 330.115 310.078 332.188Z" fill="#00008B"/>
<path id="Vector_12" d="M322.031 287.031C322.031 289.103 322.854 291.09 324.319 292.556C325.785 294.021 327.772 294.844 329.844 294.844C331.916 294.844 333.903 294.021 335.368 292.556C336.833 291.09 337.656 289.103 337.656 287.031C337.656 284.959 336.833 282.972 335.368 281.507C333.903 280.042 331.916 279.219 329.844 279.219C327.772 279.219 325.785 280.042 324.319 281.507C322.854 282.972 322.031 284.959 322.031 287.031Z" fill="#00008B"/>
<path id="Vector_13" d="M309.766 241.953C309.766 244.025 310.589 246.012 312.054 247.477C313.519 248.943 315.506 249.766 317.578 249.766C319.65 249.766 321.637 248.943 323.102 247.477C324.568 246.012 325.391 244.025 325.391 241.953C325.391 239.881 324.568 237.894 323.102 236.429C321.637 234.964 319.65 234.141 317.578 234.141C315.506 234.141 313.519 234.964 312.054 236.429C310.589 237.894 309.766 239.881 309.766 241.953Z" fill="#00008B"/>
<path id="Vector_14" d="M276.641 209.062C276.641 211.135 277.464 213.122 278.929 214.587C280.394 216.052 282.381 216.875 284.453 216.875C286.525 216.875 288.512 216.052 289.977 214.587C291.443 213.122 292.266 211.135 292.266 209.062C292.266 206.99 291.443 205.003 289.977 203.538C288.512 202.073 286.525 201.25 284.453 201.25C282.381 201.25 280.394 202.073 278.929 203.538C277.464 205.003 276.641 206.99 276.641 209.062Z" fill="#00008B"/>
</g>
</g>
</svg>
